# xmcd CD database file
#
# Track frame offsets:
#	150
#	35060
#	61417
#	91504
#	112967
#	142683
#	169158
#
# Disc length: 2582 seconds
#
# Revision: 0
# Processed by: cddbd v1.5.2PL0 Copyright (c) Steve Scherf et al.
# Submitted via: CDex 1.51
#
DISCID=4f0a1407
DTITLE=Hollotrio - Golem
DYEAR=2006
DGENRE=Jazz
TTITLE0=Sissi
TTITLE1=Huckepack
TTITLE2=Golem
TTITLE3=Cricket
TTITLE4=Froschkoenig
TTITLE5=Meltemi
TTITLE6=Weit
EXTD=YEAR: 2006
EXTT0=
EXTT1=
EXTT2=
EXTT3=
EXTT4=
EXTT5=
EXTT6=
PLAYORDER=
